<svg width="10" height="12" fill="none" xmlns="http://www.w3.org/2000/svg"><path d="M8.59 8.581c-.023-.114-.117-.168-.185-.24-.493-.52-.994-1.037-1.489-1.559-.21-.221-.23-.458-.063-.626.166-.168.398-.153.603.06.79.82 1.579 1.643 2.365 2.467.241.253.238.43-.005.686-.78.818-1.561 1.634-2.345 2.447-.216.224-.427.241-.603.064-.175-.178-.149-.407.06-.627.488-.514.981-1.025 1.47-1.539.069-.072.16-.127.187-.241-.077-.079-.173-.042-.258-.042-2.576-.003-5.153-.004-7.732-.004-.488 0-.592-.11-.592-.62V.625A1.538 1.538 0 0 1 .011.34C.053.13.181-.004.392 0c.21.004.335.137.374.349.01.085.011.17.006.256 0 2.575.004 5.15-.004 7.721 0 .244.066.3.29.299 2.42-.008 4.842-.005 7.263-.006.093.004.19.037.27-.038Z" fill="#FF6B08"/></svg>