<svg width="28" height="15" fill="none" xmlns="http://www.w3.org/2000/svg"><path d="M.42 0H6.4c1.853 0 3.24.253 4.16.76.933.493 1.4 1.333 1.4 2.52 0 1.827-1.1 2.92-3.3 3.28v.04c2.667.333 4 1.493 4 3.48 0 1.453-.547 2.473-1.64 3.06-1.093.573-2.667.86-4.72.86H.42v-.38h1.3V.38H.42V0Zm5.2 6.92v6.7h.94c.733 0 1.247-.253 1.54-.76.293-.507.44-1.253.44-2.24V9.56c0-.88-.18-1.54-.54-1.98-.36-.44-1-.66-1.92-.66h-.46Zm0-6.54v6.16h.52c.693 0 1.173-.207 1.44-.62.28-.427.42-1.073.42-1.94v-.94c0-.987-.12-1.673-.36-2.06-.24-.4-.7-.6-1.38-.6h-.64Zm14.124 6.54h-1.06v6.7h1.3V14h-6.5v-.38h1.3V.38h-1.3V0h6.04c1.733 0 2.96.093 3.68.28.733.173 1.246.387 1.54.64.64.52.96 1.347.96 2.48s-.28 1.947-.84 2.44c-.56.48-1.414.767-2.56.86v.06c1.08.147 1.833.467 2.26.96.426.493.64 1.32.64 2.48v1.06c0 .693.033 1.16.1 1.4.08.24.24.36.48.36s.426-.107.56-.32c.146-.227.28-.693.4-1.4l.34.04c-.147 1.133-.407 1.893-.78 2.28-.36.387-1.087.58-2.18.58-1.094 0-1.874-.253-2.34-.76-.454-.52-.68-1.487-.68-2.9V9.08c0-.747-.1-1.293-.3-1.64-.187-.347-.54-.52-1.06-.52ZM18.684.38v6.16h.64c.76 0 1.32-.233 1.68-.7.373-.467.56-1.227.56-2.28v-.58c0-1.053-.18-1.747-.54-2.08-.347-.347-.907-.52-1.68-.52h-.66Z" fill="#242A37"/></svg>