<svg version="1.0" xmlns="http://www.w3.org/2000/svg" width="1600" height="1600" viewBox="0 0 1200 1200"><path d="M546 17.6c-129 55.9-228.7 99-315 136.4-53.6 23.1-100.2 43.4-103.5 45-21.5 10.4-36.5 26.5-41.9 44.9-1.5 5-1.6 38-1.6 357.5 0 392.5-.6 357.7 7.2 373 7.7 14.8 26.5 30.9 50.2 42.8 26.9 13.5 57.2 22 96.6 27 15.8 1.9 51.8 1.6 65.5-.6 6.1-1 12.7-2 14.8-2.3l3.7-.6V726.9c0-277.2.2-315.2 1.5-325.6 4.6-34.9 23.3-64.7 53.5-85.2 12.5-8.5 19.1-11.9 43.5-22.4 12.1-5.2 64.8-28 117-50.7 125.8-54.6 207.1-89.8 251-108.8 19.8-8.5 36.3-15.8 36.7-16.1.9-.8-.8-8.4-3.3-14.9-1.5-3.5-3.9-6.8-7.5-10.1-6.6-6-13.2-8.5-21.2-7.9-6.8.5 21.9-11.7-354.2 151.3-122.1 52.9-115.1 50.2-139 54.1-15.5 2.6-48 2.3-66.1-.4-29.7-4.6-59.4-14.3-76.3-24.9l-3.9-2.5 42.9-18.5c23.6-10.2 74.9-32.4 113.9-49.3 39.1-16.9 88.8-38.4 110.5-47.8 21.7-9.4 62.9-27.2 91.4-39.6l51.9-22.5 30.4 13c16.7 7.1 30.6 12.9 30.9 12.9.3 0 .4-19.2.2-42.8-.3-41.8-.4-42.8-2.6-48.3-3-7.4-8.9-14.1-15.4-17.3C603.5.4 601.2 0 594.6 0l-8.1.1L546 17.6z"/><path d="M884 154.6c-4.5 1.8-33.6 14.3-83 35.6-51.4 22.2-83.7 36.2-270 116.8-37.1 16.1-75.8 32.8-85.9 37.2-24.5 10.5-32.2 14.6-41.4 22.1-12.1 9.8-19.5 20.7-23.1 34.2-1.5 5.5-1.6 35.4-1.4 358.5l.3 352.5 2.7 7.3c4 11.1 8.4 17.8 17.8 27.2 27 27 79 47.4 134.4 52.9 15.6 1.6 52.9 1.4 65.6-.3 26.5-3.6 39.7-7.9 84-27.1 17.3-7.6 58.5-25.4 91.5-39.7 33-14.3 68.1-29.5 78-33.8 9.9-4.3 68.9-29.9 131.2-56.9 62.3-27 115.4-50.1 118-51.3 2.6-1.2 6.7-4.2 9.1-6.6l4.2-4.4V254.4l-3.4-4c-1.9-2.2-5.8-5.3-8.7-6.9-4.8-2.6-6.4-3-13.4-3l-8 .1-34 14.8c-18.7 8.1-79.2 34.4-134.5 58.3S807 360 799 363.5c-120.9 52.4-172.6 74.6-178 76.3-45.2 14.5-112.5 8.3-159.2-14.8-8.6-4.2-12.5-6.7-11.7-7.4.2-.2 20.4-9 44.9-19.6 24.5-10.6 81.2-35.1 126-54.5s116.9-50.7 160.2-69.4l78.7-34 29.3 12.5c16.1 6.9 29.9 12.8 30.6 13.1 1 .4 1.2-8 1-43.3l-.3-43.9-2.6-5.6c-3.3-7-9.6-13.4-15.7-16.1-4.5-2-15.3-3.3-18.2-2.2z"/></svg>