<svg width="23" height="17" fill="none" xmlns="http://www.w3.org/2000/svg"><path d="m19.812.455.53.826c-3.657 2.4-5.486 4.799-5.486 7.198 0 1.22.53 1.927 1.593 2.124l2.478-2.301c.787.275 1.495.787 2.124 1.534.669.708 1.003 1.632 1.003 2.773 0 1.14-.452 2.124-1.357 2.95-.905.787-2.104 1.18-3.6 1.18-1.455 0-2.674-.492-3.657-1.475-.944-1.023-1.416-2.419-1.416-4.189 0-3.855 2.596-7.395 7.788-10.62ZM8.72.455l.53.826c-3.657 2.4-5.486 4.799-5.486 7.198 0 1.22.53 1.927 1.593 2.124l2.478-2.301c.787.275 1.495.787 2.124 1.534.668.708 1.003 1.632 1.003 2.773 0 1.14-.453 2.124-1.357 2.95-.905.787-2.104 1.18-3.6 1.18-1.454 0-2.674-.492-3.657-1.475-.944-1.023-1.416-2.419-1.416-4.189C.932 7.22 3.528 3.68 8.72.455Z" fill="#FF6B08"/></svg>