<svg width="54" height="54" fill="none" xmlns="http://www.w3.org/2000/svg"><g clip-path="url(#a)"><path d="M20.25 47.25H40.5a4.47 4.47 0 0 0 4.14-2.745l6.795-15.863A4.445 4.445 0 0 0 51.75 27v-4.5c0-2.475-2.025-4.5-4.5-4.5H33.053L35.19 7.718l.068-.72c0-.923-.383-1.778-.99-2.386L31.881 2.25 17.056 17.078a4.472 4.472 0 0 0-1.305 3.172v22.5c0 2.475 2.025 4.5 4.5 4.5Zm0-27 9.765-9.765L27 22.5h20.25V27L40.5 42.75H20.25v-22.5Zm-18 0h9v27h-9v-27Z" fill="#FF6B08"/></g><defs><clipPath id="a"><path fill="#fff" d="M0 0h54v54H0z"/></clipPath></defs></svg>